<?xml version="1.0" encoding="UTF-8"?>
<!DOCTYPE svg PUBLIC "-//W3C//DTD SVG 1.1//EN" "http://www.w3.org/Graphics/SVG/1.1/DTD/svg11.dtd">
<svg xmlns="http://www.w3.org/2000/svg" version="1.1" width="260px" height="260px" style="shape-rendering:geometricPrecision; text-rendering:geometricPrecision; image-rendering:optimizeQuality; fill-rule:evenodd; clip-rule:evenodd" xmlns:xlink="http://www.w3.org/1999/xlink">
<g><path style="opacity:0.992" fill="#fefefe" d="M 110.5,-0.5 C 123.167,-0.5 135.833,-0.5 148.5,-0.5C 210.503,11.5032 247.503,48.5032 259.5,110.5C 259.5,111.167 259.5,111.833 259.5,112.5C 249.817,113.457 240.15,113.457 230.5,112.5C 239.941,114.239 249.607,114.905 259.5,114.5C 259.5,125.833 259.5,137.167 259.5,148.5C 247.497,210.503 210.497,247.503 148.5,259.5C 135.833,259.5 123.167,259.5 110.5,259.5C 48.4968,247.497 11.4968,210.497 -0.5,148.5C -0.5,135.833 -0.5,123.167 -0.5,110.5C 11.5032,48.4968 48.5032,11.4968 110.5,-0.5 Z"/></g>
<g><path style="opacity:1" fill="#52b0f1" d="M 55.5,85.5 C 55.5751,82.7938 55.9084,80.1272 56.5,77.5C 57.2646,77.9234 58.0979,78.2568 59,78.5C 71.5706,70.9761 72.9039,71.9761 63,81.5C 62.8955,84.4732 63.0621,87.4732 63.5,90.5C 63.9838,93.5752 62.9838,95.9085 60.5,97.5C 59.7029,93.1577 58.8695,88.8244 58,84.5C 57.3292,85.2524 56.4959,85.5858 55.5,85.5 Z"/></g>
<g><path style="opacity:1" fill="#fcc45c" d="M 13.5,85.5 C 14.4971,84.2875 15.4971,84.4542 16.5,86C 15.4232,86.4696 14.4232,86.3029 13.5,85.5 Z"/></g>
<g><path style="opacity:1" fill="#4f89bf" d="M 56.5,77.5 C 55.9084,80.1272 55.5751,82.7938 55.5,85.5C 53.487,87.4974 51.1537,89.164 48.5,90.5C 47.2521,97.6604 45.5854,97.9937 43.5,91.5C 43.0431,90.7025 42.3764,90.3691 41.5,90.5C 41.1667,89.8333 40.8333,89.1667 40.5,88.5C 46.0531,89.4855 50.5531,87.4855 54,82.5C 54.7494,81.365 54.5827,80.365 53.5,79.5C 51.1667,78.3333 48.8333,77.1667 46.5,76C 45.1667,75.3333 45.1667,74.6667 46.5,74C 47.8333,73.3333 49.1667,73.3333 50.5,74C 53.0193,74.5864 55.0193,75.7531 56.5,77.5 Z"/></g>
<g><path style="opacity:1" fill="#fdca6e" d="M 18.5,88.5 C 21.3153,88.2037 23.9819,89.2037 26.5,91.5C 26.3333,91.8333 26.1667,92.1667 26,92.5C 23.5524,91.0268 21.0524,89.6935 18.5,88.5 Z"/></g>
<g><path style="opacity:1" fill="#fbbc4f" d="M 40.5,88.5 C 40.8333,89.1667 41.1667,89.8333 41.5,90.5C 41.2914,91.9217 40.7914,93.255 40,94.5C 38.951,92.8934 37.451,92.2267 35.5,92.5C 35.5,93.8333 35.5,95.1667 35.5,96.5C 32.8739,98.8235 30.2072,101.157 27.5,103.5C 26.5512,100.134 27.2178,96.9672 29.5,94C 28.5784,89.5198 30.4117,86.3531 35,84.5C 36.981,85.6502 38.8143,86.9835 40.5,88.5 Z"/></g>
<g><path style="opacity:1" fill="#fffbf6" d="M 30.5,92.5 C 31.8333,92.5 33.1667,92.5 34.5,92.5C 34.5,93.8333 34.5,95.1667 34.5,96.5C 33.1667,96.5 31.8333,96.5 30.5,96.5C 30.5,95.1667 30.5,93.8333 30.5,92.5 Z"/></g>
<g><path style="opacity:1" fill="#fab02d" d="M 42.5,102.5 C 40.3647,100.631 37.6981,99.9644 34.5,100.5C 35.5,99.1667 36.5,97.8333 37.5,96.5C 41.1059,95.2859 43.1059,96.7859 43.5,101C 43.4301,101.765 43.0967,102.265 42.5,102.5 Z"/></g>
<g><path style="opacity:1" fill="#fdcc71" d="M 51.5,102.5 C 48.4838,101.657 45.8171,100.157 43.5,98C 46.7301,98.3754 49.3968,99.8754 51.5,102.5 Z"/></g>
<g><path style="opacity:1" fill="#fbda9b" d="M 34.5,100.5 C 37.6981,99.9644 40.3647,100.631 42.5,102.5C 38.8333,102.5 35.1667,102.5 31.5,102.5C 32.2905,101.599 33.2905,100.932 34.5,100.5 Z"/></g>
<g><path style="opacity:1" fill="#fdc55e" d="M 51.5,102.5 C 52.7562,102.461 53.7562,102.961 54.5,104C 53.0024,104.585 52.0024,104.085 51.5,102.5 Z"/></g>
<g><path style="opacity:1" fill="#4abbff" d="M 115.5,113.5 C 114.599,115.727 112.933,116.727 110.5,116.5C 110.997,112.241 110.331,108.241 108.5,104.5C 109.76,103.618 110.926,102.618 112,101.5C 112.768,105.783 113.934,109.783 115.5,113.5 Z"/></g>
<g><path style="opacity:1" fill="#44b9ff" d="M 115.5,113.5 C 117.656,110.564 117.99,107.397 116.5,104C 117.469,102.242 118.636,101.742 120,102.5C 119.948,106.656 120.781,110.49 122.5,114C 121.347,115.883 119.681,116.716 117.5,116.5C 117.715,114.821 117.048,113.821 115.5,113.5 Z"/></g>
<g><path style="opacity:1" fill="#4abbff" d="M 127.5,101.5 C 128.239,101.369 128.906,101.536 129.5,102C 130.64,103.973 131.973,105.807 133.5,107.5C 134.614,104.596 136.614,102.596 139.5,101.5C 140.086,101.709 140.586,102.043 141,102.5C 140.948,106.656 141.781,110.49 143.5,114C 142.347,115.883 140.681,116.716 138.5,116.5C 138.666,112.486 138.499,108.486 138,104.5C 136.038,107.664 135.372,110.997 136,114.5C 134.817,115.731 133.651,115.731 132.5,114.5C 129.972,108.037 129.305,108.037 130.5,114.5C 129.68,116.111 128.346,116.778 126.5,116.5C 126.997,112.241 126.331,108.241 124.5,104.5C 125.77,103.712 126.77,102.712 127.5,101.5 Z"/></g>
<g><path style="opacity:1" fill="#5cbfff" d="M 148.5,101.5 C 149.239,101.369 149.906,101.536 150.5,102C 151.956,103.745 153.289,105.578 154.5,107.5C 155.614,104.596 157.614,102.596 160.5,101.5C 161.086,101.709 161.586,102.043 162,102.5C 161.948,106.656 162.781,110.49 164.5,114C 163.347,115.883 161.681,116.716 159.5,116.5C 159.666,112.486 159.499,108.486 159,104.5C 157.06,107.935 156.226,111.435 156.5,115C 154.892,115.658 153.725,115.158 153,113.5C 151.54,116.21 149.54,116.876 147,115.5C 146.762,111.778 146.262,108.111 145.5,104.5C 146.34,103.265 147.34,102.265 148.5,101.5 Z"/></g>
<g><path style="opacity:1" fill="#4fbcff" d="M 169.5,101.5 C 172.423,101.543 175.423,101.876 178.5,102.5C 176.49,104.171 174.157,104.838 171.5,104.5C 171.5,105.5 171.5,106.5 171.5,107.5C 179.297,108.051 179.297,109.051 171.5,110.5C 171.5,111.5 171.5,112.5 171.5,113.5C 173.527,113.338 175.527,113.505 177.5,114C 174.983,116.251 171.983,117.084 168.5,116.5C 168.772,112.098 168.439,107.765 167.5,103.5C 168.243,102.818 168.909,102.151 169.5,101.5 Z"/></g>
<g><path style="opacity:1" fill="#fdc868" d="M 24.5,97.5 C 26.3786,97.3932 26.7119,97.8932 25.5,99C 12.6927,106.264 12.3594,105.764 24.5,97.5 Z"/></g>
<g><path style="opacity:1" fill="#fddea9" d="M 29.5,104.5 C 33.6007,105.366 37.6007,105.366 41.5,104.5C 41.5,105.5 41.5,106.5 41.5,107.5C 36.868,107.238 32.2014,106.905 27.5,106.5C 27.8333,105.5 28.5,104.833 29.5,104.5 Z"/></g>
<g><path style="opacity:1" fill="#f9f9f7" d="M 26.5,107.5 C 26.2269,114.504 25.8936,121.504 25.5,128.5C 24.5,128.5 23.5,128.5 22.5,128.5C 22.4729,130.199 21.8062,131.533 20.5,132.5C 18.1667,132.5 15.8333,132.5 13.5,132.5C 14.5642,127.308 16.2308,122.308 18.5,117.5C 21.1667,114.167 23.8333,110.833 26.5,107.5 Z"/></g>
<g><path style="opacity:1" fill="#fbad21" d="M 76.5,106.5 C 80.8383,106.622 81.1716,106.955 77.5,107.5C 77.5,109.167 77.5,110.833 77.5,112.5C 76.5,112.5 75.5,112.5 74.5,112.5C 74.6036,110.297 75.2702,108.297 76.5,106.5 Z"/></g>
<g><path style="opacity:1" fill="#84d0ff" d="M 230.5,112.5 C 228.925,115.529 227.759,118.862 227,122.5C 225.237,115.254 223.903,107.921 223,100.5C 222.147,104.469 221.481,108.469 221,112.5C 219.092,114.907 217.092,114.907 215,112.5C 213.829,113.34 212.662,114.173 211.5,115C 208.183,115.498 204.85,115.665 201.5,115.5C 201.5,114.833 201.167,114.5 200.5,114.5C 204.353,113.834 208.353,113.167 212.5,112.5C 212.887,111.28 213.72,110.613 215,110.5C 216.393,111.615 217.893,112.115 219.5,112C 220.3,107.92 220.8,103.753 221,99.5C 221.29,97.9559 221.956,96.6226 223,95.5C 224.739,101.745 226.073,108.078 227,114.5C 227.219,113.062 227.719,111.729 228.5,110.5C 229.522,110.855 230.189,111.522 230.5,112.5 Z"/></g>
<g><path style="opacity:1" fill="#53bdff" d="M 200.5,114.5 C 201.167,114.5 201.5,114.833 201.5,115.5C 197.459,115.675 193.459,115.842 189.5,116C 188.642,114.43 187.975,112.763 187.5,111C 188.856,109.433 189.523,107.6 189.5,105.5C 188.167,105.5 186.833,105.5 185.5,105.5C 185.073,108.788 185.74,111.788 187.5,114.5C 186.409,115.888 185.076,116.388 183.5,116C 183.123,112.087 182.123,108.42 180.5,105C 181.685,103.647 183.019,102.48 184.5,101.5C 185.167,102.167 185.833,102.833 186.5,103.5C 189.969,100.407 192.303,101.073 193.5,105.5C 193.124,107.383 192.124,108.883 190.5,110C 192.666,113.879 195.999,115.379 200.5,114.5 Z"/></g>
<g><path style="opacity:1" fill="#8dd4ff" d="M 230.5,112.5 C 240.15,113.457 249.817,113.457 259.5,112.5C 259.5,113.167 259.5,113.833 259.5,114.5C 249.607,114.905 239.941,114.239 230.5,112.5 Z"/></g>
<g><path style="opacity:1" fill="#fcba47" d="M 100.5,94.5 C 102.958,94.2275 104.625,95.2275 105.5,97.5C 104.351,100.429 102.685,100.929 100.5,99C 97.1832,98.5017 93.8499,98.335 90.5,98.5C 90.2865,100.144 90.6198,101.644 91.5,103C 95.1667,103.333 98.8333,103.667 102.5,104C 105.991,105.821 107.157,108.654 106,112.5C 104.456,115.689 101.956,116.855 98.5,116C 104.121,115.145 105.954,111.978 104,106.5C 103.25,105.874 102.416,105.374 101.5,105C 97.8333,104.667 94.1667,104.333 90.5,104C 87.8333,101.667 87.8333,99.3333 90.5,97C 94.3113,97.0835 97.6446,96.2501 100.5,94.5 Z"/></g>
<g><path style="opacity:1" fill="#5d93c1" d="M 35.5,96.5 C 36.1667,96.5 36.8333,96.5 37.5,96.5C 36.5,97.8333 35.5,99.1667 34.5,100.5C 33.2905,100.932 32.2905,101.599 31.5,102.5C 30.5,102.833 29.8333,103.5 29.5,104.5C 28.5,104.833 27.8333,105.5 27.5,106.5C 26.8333,106.5 26.5,106.833 26.5,107.5C 23.8333,110.833 21.1667,114.167 18.5,117.5C 18.5,116.833 18.1667,116.5 17.5,116.5C 20.1068,111.626 23.4401,107.292 27.5,103.5C 30.2072,101.157 32.8739,98.8235 35.5,96.5 Z"/></g>
<g><path style="opacity:1" fill="#fbaf2d" d="M 31.5,102.5 C 35.1667,102.5 38.8333,102.5 42.5,102.5C 43.3622,110.148 44.1956,117.815 45,125.5C 46.1468,128.135 47.6468,130.468 49.5,132.5C 48.5,132.5 47.5,132.5 46.5,132.5C 46.5,131.5 46.5,130.5 46.5,129.5C 39.1667,129.5 31.8333,129.5 24.5,129.5C 24.5,130.5 24.5,131.5 24.5,132.5C 23.1667,132.5 21.8333,132.5 20.5,132.5C 21.8062,131.533 22.4729,130.199 22.5,128.5C 23.5,128.5 24.5,128.5 25.5,128.5C 25.8936,121.504 26.2269,114.504 26.5,107.5C 26.5,106.833 26.8333,106.5 27.5,106.5C 32.2014,106.905 36.868,107.238 41.5,107.5C 41.5,106.5 41.5,105.5 41.5,104.5C 37.6007,105.366 33.6007,105.366 29.5,104.5C 29.8333,103.5 30.5,102.833 31.5,102.5 Z"/></g>
<g><path style="opacity:1" fill="#fefffe" d="M 37.5,113.5 C 39.288,113.215 40.9547,113.548 42.5,114.5C 41.6667,114.833 40.8333,115.167 40,115.5C 38.6244,115.316 37.7911,114.649 37.5,113.5 Z"/></g>
<g><path style="opacity:1" fill="#fefefc" d="M 27.5,113.5 C 29.288,113.215 30.9547,113.548 32.5,114.5C 31.6667,114.833 30.8333,115.167 30,115.5C 28.6244,115.316 27.7911,114.649 27.5,113.5 Z"/></g>
<g><path style="opacity:1" fill="#fcb53a" d="M 81.5,105.5 C 87.8708,104.873 92.2041,107.54 94.5,113.5C 95.325,114.386 96.325,114.719 97.5,114.5C 97.5,115.5 97.5,116.5 97.5,117.5C 96.325,117.281 95.325,117.614 94.5,118.5C 92.2536,125.089 87.9202,127.089 81.5,124.5C 87.906,124.755 91.5727,121.755 92.5,115.5C 91.389,109.433 87.7224,107.099 81.5,108.5C 81.5,107.5 81.5,106.5 81.5,105.5 Z"/></g>
<g><path style="opacity:1" fill="#fffcf8" d="M 32.5,121.5 C 34.1667,121.5 35.8333,121.5 37.5,121.5C 37.5,123.833 37.5,126.167 37.5,128.5C 35.8333,128.5 34.1667,128.5 32.5,128.5C 32.5,126.167 32.5,123.833 32.5,121.5 Z"/></g>
<g><path style="opacity:1" fill="#fffbf6" d="M 26.5,123.5 C 28.288,123.215 29.9547,123.548 31.5,124.5C 30.6667,124.833 29.8333,125.167 29,125.5C 27.6244,125.316 26.7911,124.649 26.5,123.5 Z"/></g>
<g><path style="opacity:1" fill="#fefffe" d="M 39.5,123.5 C 40.9778,123.238 42.3112,123.571 43.5,124.5C 42.8333,124.833 42.1667,125.167 41.5,125.5C 40.2867,125.253 39.62,124.586 39.5,123.5 Z"/></g>
<g><path style="opacity:1" fill="#fcb53a" d="M 74.5,119.5 C 75.5,119.5 76.5,119.5 77.5,119.5C 76.9648,122.238 77.9648,124.072 80.5,125C 76.2887,125.817 74.2887,123.984 74.5,119.5 Z"/></g>
<g><path style="opacity:1" fill="#a4bde1" d="M 55.5,131.5 C 54.8333,131.167 54.1667,130.833 53.5,130.5C 55.9392,128.31 55.2725,126.81 51.5,126C 54.4066,125.146 56.7399,125.979 58.5,128.5C 57.2299,129.288 56.2299,130.288 55.5,131.5 Z"/></g>
<g><path style="opacity:1" fill="#f5f4f2" d="M 46.5,132.5 C 39.1523,132.372 31.819,132.372 24.5,132.5C 24.5,131.5 24.5,130.5 24.5,129.5C 31.8333,129.5 39.1667,129.5 46.5,129.5C 46.5,130.5 46.5,131.5 46.5,132.5 Z"/></g>
<g><path style="opacity:1" fill="#5abfff" d="M 166.5,128.5 C 167.117,128.611 167.617,128.944 168,129.5C 168.495,131.473 168.662,133.473 168.5,135.5C 169.833,135.5 171.167,135.5 172.5,135.5C 172.64,133.876 171.973,132.71 170.5,132C 171.875,129.523 173.709,128.689 176,129.5C 176.232,133.555 176.732,137.555 177.5,141.5C 173.769,144.463 172.102,143.463 172.5,138.5C 171.022,138.238 169.689,138.571 168.5,139.5C 169.025,140.192 169.692,140.692 170.5,141C 169.347,142.883 167.681,143.716 165.5,143.5C 165.997,139.241 165.331,135.241 163.5,131.5C 164.77,130.712 165.77,129.712 166.5,128.5 Z"/></g>
<g><path style="opacity:1" fill="#5bc0ff" d="M 213.5,128.5 C 214.496,128.414 215.329,128.748 216,129.5C 216.499,133.152 216.665,136.818 216.5,140.5C 218.199,140.34 219.866,140.506 221.5,141C 218.983,143.251 215.983,144.084 212.5,143.5C 212.997,139.241 212.331,135.241 210.5,131.5C 211.77,130.712 212.77,129.712 213.5,128.5 Z"/></g>
<g><path style="opacity:1" fill="#3866b7" d="M 17.5,116.5 C 18.1667,116.5 18.5,116.833 18.5,117.5C 16.2308,122.308 14.5642,127.308 13.5,132.5C 15.8333,132.5 18.1667,132.5 20.5,132.5C 21.8333,132.5 23.1667,132.5 24.5,132.5C 31.819,132.372 39.1523,132.372 46.5,132.5C 47.5,132.5 48.5,132.5 49.5,132.5C 51.0618,132.267 52.3951,131.6 53.5,130.5C 54.1667,130.833 54.8333,131.167 55.5,131.5C 59.0641,132.423 62.7307,132.756 66.5,132.5C 65.551,134.737 64.8844,137.071 64.5,139.5C 65.5,139.5 66.5,139.5 67.5,139.5C 67.5,139.833 67.5,140.167 67.5,140.5C 65.8007,140.527 64.4674,141.194 63.5,142.5C 62.8333,133.167 62.1667,133.167 61.5,142.5C 61.1667,142.5 60.8333,142.5 60.5,142.5C 59.8333,133.167 59.1667,133.167 58.5,142.5C 56.3074,141.105 53.9741,140.105 51.5,139.5C 51.1667,139.5 50.8333,139.5 50.5,139.5C 50.5,138.167 50.5,136.833 50.5,135.5C 46.2673,134.206 41.9339,134.206 37.5,135.5C 35.6565,137.279 34.9898,139.612 35.5,142.5C 35.1667,142.5 34.8333,142.5 34.5,142.5C 33.8333,133.167 33.1667,133.167 32.5,142.5C 31.8333,142.5 31.5,142.167 31.5,141.5C 31.5,139.5 31.5,137.5 31.5,135.5C 27.5,135.5 23.5,135.5 19.5,135.5C 19.5,136.833 19.5,138.167 19.5,139.5C 22.0593,139.198 24.3926,139.532 26.5,140.5C 22.2984,140.817 18.2984,140.483 14.5,139.5C 13.2719,140.306 12.2719,141.306 11.5,142.5C 11.2971,133.365 10.6304,133.365 9.5,142.5C 9.16667,142.5 8.83333,142.5 8.5,142.5C 7.83333,133.167 7.16667,133.167 6.5,142.5C 5.53261,141.194 4.19928,140.527 2.5,140.5C 3.20895,139.596 4.20895,139.263 5.5,139.5C 5.11562,137.071 4.44896,134.737 3.5,132.5C 6.5,132.5 9.5,132.5 12.5,132.5C 12.4758,126.57 14.1425,121.237 17.5,116.5 Z"/></g>
<g><path style="opacity:1" fill="#4cbbff" d="M 185.5,128.5 C 191.392,129.264 193.559,132.598 192,138.5C 184.261,146.11 180.594,144.444 181,133.5C 182.707,131.963 184.207,130.296 185.5,128.5 Z"/></g>
<g><path style="opacity:1" fill="#ebf7ff" d="M 183.5,132.5 C 185.144,132.286 186.644,132.62 188,133.5C 188.495,135.473 188.662,137.473 188.5,139.5C 184.684,138.91 183.017,136.577 183.5,132.5 Z"/></g>
<g><path style="opacity:1" fill="#53bdff" d="M 201.5,128.5 C 206.602,129.429 208.769,132.429 208,137.5C 200.416,146.44 196.416,145.107 196,133.5C 197.812,131.7 199.645,130.033 201.5,128.5 Z"/></g>
<g><path style="opacity:1" fill="#f0f9ff" d="M 199.5,132.5 C 204.521,133.393 205.687,136.059 203,140.5C 200.466,138.431 199.299,135.765 199.5,132.5 Z"/></g>
<g><path style="opacity:1" fill="#52bdff" d="M 153.5,128.5 C 156.599,128.092 158.933,129.259 160.5,132C 158.088,135.162 155.755,134.995 153.5,131.5C 150.789,134.666 151.122,137.666 154.5,140.5C 159.546,141.705 159.38,143.038 154,144.5C 148.931,142.49 147.264,138.823 149,133.5C 150.707,131.963 152.207,130.296 153.5,128.5 Z"/></g>
<g><path style="opacity:1" fill="#ecedee" d="M 8.5,142.5 C 7.83333,142.5 7.16667,142.5 6.5,142.5C 7.16667,133.167 7.83333,133.167 8.5,142.5 Z"/></g>
<g><path style="opacity:1" fill="#eceef0" d="M 11.5,142.5 C 10.8333,142.5 10.1667,142.5 9.5,142.5C 10.6304,133.365 11.2971,133.365 11.5,142.5 Z"/></g>
<g><path style="opacity:1" fill="#e9edf3" d="M 34.5,142.5 C 33.8333,142.5 33.1667,142.5 32.5,142.5C 33.1667,133.167 33.8333,133.167 34.5,142.5 Z"/></g>
<g><path style="opacity:1" fill="#eceef0" d="M 37.5,135.5 C 37.5,137.833 37.5,140.167 37.5,142.5C 36.8333,142.5 36.1667,142.5 35.5,142.5C 34.9898,139.612 35.6565,137.279 37.5,135.5 Z"/></g>
<g><path style="opacity:1" fill="#6e96ce" d="M 50.5,135.5 C 48.8333,135.5 47.1667,135.5 45.5,135.5C 45.5,136.833 45.5,138.167 45.5,139.5C 45.1667,139.5 44.8333,139.5 44.5,139.5C 44.5,138.167 44.5,136.833 44.5,135.5C 42.8333,135.5 41.1667,135.5 39.5,135.5C 39.5,137.167 39.5,138.833 39.5,140.5C 40.8333,140.5 42.1667,140.5 43.5,140.5C 41.6264,141.285 39.6264,141.952 37.5,142.5C 37.5,140.167 37.5,137.833 37.5,135.5C 41.9339,134.206 46.2673,134.206 50.5,135.5 Z"/></g>
<g><path style="opacity:1" fill="#e9eef3" d="M 60.5,142.5 C 59.8333,142.5 59.1667,142.5 58.5,142.5C 59.1667,133.167 59.8333,133.167 60.5,142.5 Z"/></g>
<g><path style="opacity:1" fill="#f6f6f4" d="M 63.5,142.5 C 62.8333,142.5 62.1667,142.5 61.5,142.5C 62.1667,133.167 62.8333,133.167 63.5,142.5 Z"/></g>
<g><path style="opacity:1" fill="#d5e0f1" d="M 31.5,141.5 C 29.5853,141.784 27.9187,141.451 26.5,140.5C 24.3926,139.532 22.0593,139.198 19.5,139.5C 19.5,138.167 19.5,136.833 19.5,135.5C 23.5,135.5 27.5,135.5 31.5,135.5C 31.5,137.5 31.5,139.5 31.5,141.5 Z"/></g>
<g><path style="opacity:1" fill="#eaeff8" d="M 44.5,139.5 C 44.5,140.167 44.1667,140.5 43.5,140.5C 42.1667,140.5 40.8333,140.5 39.5,140.5C 39.5,138.833 39.5,137.167 39.5,135.5C 41.1667,135.5 42.8333,135.5 44.5,135.5C 44.5,136.833 44.5,138.167 44.5,139.5 Z"/></g>
<g><path style="opacity:1" fill="#eef3f9" d="M 14.5,139.5 C 13.7659,138.292 13.4326,136.959 13.5,135.5C 15.1667,135.5 16.8333,135.5 18.5,135.5C 18.5,136.833 18.5,138.167 18.5,139.5C 17.1667,139.5 15.8333,139.5 14.5,139.5 Z"/></g>
<g><path style="opacity:1" fill="#f2f5fb" d="M 50.5,135.5 C 50.5,136.833 50.5,138.167 50.5,139.5C 48.8333,139.5 47.1667,139.5 45.5,139.5C 45.5,138.167 45.5,136.833 45.5,135.5C 47.1667,135.5 48.8333,135.5 50.5,135.5 Z"/></g>
<g><path style="opacity:1" fill="#f1f5fa" d="M 51.5,139.5 C 51.5,138.167 51.5,136.833 51.5,135.5C 53.1667,135.5 54.8333,135.5 56.5,135.5C 56.5,136.833 56.5,138.167 56.5,139.5C 54.8333,139.5 53.1667,139.5 51.5,139.5 Z"/></g>
<g><path style="opacity:1" fill="#2658b1" d="M 14.5,139.5 C 18.2984,140.483 22.2984,140.817 26.5,140.5C 27.9187,141.451 29.5853,141.784 31.5,141.5C 31.5,142.167 31.8333,142.5 32.5,142.5C 33.1667,142.5 33.8333,142.5 34.5,142.5C 34.8333,142.5 35.1667,142.5 35.5,142.5C 36.1667,142.5 36.8333,142.5 37.5,142.5C 39.6264,141.952 41.6264,141.285 43.5,140.5C 44.1667,140.5 44.5,140.167 44.5,139.5C 44.8333,139.5 45.1667,139.5 45.5,139.5C 47.1667,139.5 48.8333,139.5 50.5,139.5C 50.8333,139.5 51.1667,139.5 51.5,139.5C 53.9741,140.105 56.3074,141.105 58.5,142.5C 59.1667,142.5 59.8333,142.5 60.5,142.5C 60.8333,142.5 61.1667,142.5 61.5,142.5C 62.1667,142.5 62.8333,142.5 63.5,142.5C 64.4674,141.194 65.8007,140.527 67.5,140.5C 67.5,141.833 67.5,143.167 67.5,144.5C 62.3507,145.458 57.0173,146.125 51.5,146.5C 35.1597,146.016 18.8264,145.683 2.5,145.5C 2.5,143.833 2.5,142.167 2.5,140.5C 4.19928,140.527 5.53261,141.194 6.5,142.5C 7.16667,142.5 7.83333,142.5 8.5,142.5C 8.83333,142.5 9.16667,142.5 9.5,142.5C 10.1667,142.5 10.8333,142.5 11.5,142.5C 12.2719,141.306 13.2719,140.306 14.5,139.5 Z"/></g>
<g><path style="opacity:1" fill="#8dd1fc" d="M 67.5,144.5 C 67.5,143.167 67.5,141.833 67.5,140.5C 67.5,140.167 67.5,139.833 67.5,139.5C 68.404,140.209 68.7373,141.209 68.5,142.5C 74.8399,142.151 81.1732,141.651 87.5,141C 89.8091,137.714 91.9757,137.881 94,141.5C 94.9151,135.365 96.4151,129.365 98.5,123.5C 99.641,125.421 99.8077,127.421 99,129.5C 98.6667,128.833 98.3333,128.167 98,127.5C 97.6667,131.5 97.3333,135.5 97,139.5C 95.3974,143.085 93.2307,143.418 90.5,140.5C 89.354,141.145 88.354,141.978 87.5,143C 80.8,143.286 74.1333,143.786 67.5,144.5 Z"/></g>
<g><path style="opacity:1" fill="#72c8ff" d="M 138.5,128.5 C 144.262,127.717 145.429,129.383 142,133.5C 141.035,131.74 139.868,131.406 138.5,132.5C 147.975,137.048 147.808,141.048 138,144.5C 136.775,144.138 135.609,143.638 134.5,143C 125.167,142.667 115.833,142.333 106.5,142C 105.975,141.308 105.308,140.808 104.5,140.5C 103.833,143.833 103.167,147.167 102.5,150.5C 100.046,144.024 99.2129,137.357 100,130.5C 101.073,134.084 101.74,137.75 102,141.5C 102.849,138.479 104.349,137.979 106.5,140C 115.807,141.507 125.14,141.507 134.5,140C 135.025,139.308 135.692,138.808 136.5,138.5C 137.551,139.885 138.884,140.885 140.5,141.5C 141.521,140.998 141.688,140.332 141,139.5C 138.456,137.998 136.29,136.164 134.5,134C 135.65,132.019 136.984,130.186 138.5,128.5 Z"/></g>
<g><path style="opacity:1" fill="#a0bdd7" d="M 134.5,157.5 C 138.138,156.737 139.638,158.07 139,161.5C 136.572,159.026 136.072,159.526 137.5,163C 136.552,163.483 135.552,163.649 134.5,163.5C 134.5,161.5 134.5,159.5 134.5,157.5 Z"/></g>
<g><path style="opacity:1" fill="#8fb1d0" d="M 107.5,157.5 C 108.5,157.5 109.5,157.5 110.5,157.5C 110.5,159.5 110.5,161.5 110.5,163.5C 109.5,163.5 108.5,163.5 107.5,163.5C 107.5,161.5 107.5,159.5 107.5,157.5 Z"/></g>
<g><path style="opacity:1" fill="#7ca4c8" d="M 127.5,158.5 C 128.94,159.363 130.274,159.363 131.5,158.5C 132.833,160.167 132.833,161.833 131.5,163.5C 130.803,161.615 129.803,161.282 128.5,162.5C 127.571,161.311 127.238,159.978 127.5,158.5 Z"/></g>
<g><path style="opacity:1" fill="#87abcc" d="M 153.5,157.5 C 155.513,158.475 156.846,160.142 157.5,162.5C 157.167,162.833 156.833,163.167 156.5,163.5C 155.28,162.289 154.113,162.289 153,163.5C 153.135,161.575 153.302,159.575 153.5,157.5 Z"/></g>
<g><path style="opacity:1" fill="#86abcc" d="M 95.5,158.5 C 99.0714,158.408 100.238,160.074 99,163.5C 98,162.167 97,162.167 96,163.5C 95.5065,161.866 95.3398,160.199 95.5,158.5 Z"/></g>
<g><path style="opacity:1" fill="#7ca4c8" d="M 113.5,159.5 C 114.625,158.986 115.791,158.653 117,158.5C 116.333,160.167 116.333,161.833 117,163.5C 115.933,162.809 114.766,162.309 113.5,162C 114.774,161.023 114.774,160.189 113.5,159.5 Z"/></g>
<g><path style="opacity:1" fill="#89adce" d="M 121.5,157.5 C 123.384,158.382 124.717,159.882 125.5,162C 125,162.5 124.5,163 124,163.5C 123,162.167 122,162.167 121,163.5C 120.322,161.402 120.489,159.402 121.5,157.5 Z"/></g>
<g><path style="opacity:1" fill="#84aacb" d="M 141.5,158.5 C 142.833,158.5 144.167,158.5 145.5,158.5C 145.66,160.199 145.494,161.866 145,163.5C 144,163.167 143,162.833 142,162.5C 141.51,161.207 141.343,159.873 141.5,158.5 Z"/></g>
</svg>
