<svg width="120" height="120" viewBox="0 0 120 120" fill="none" xmlns="http://www.w3.org/2000/svg">
<path d="M60 7.5C46.0761 7.5 32.7226 13.0312 22.8769 22.8769C13.0312 32.7226 7.5 46.0761 7.5 60C7.5 73.9239 13.0312 87.2774 22.8769 97.1231C32.7226 106.969 46.0761 112.5 60 112.5C73.6486 112.486 86.7552 107.157 96.5414 97.643C106.328 88.129 112.024 75.1779 112.423 61.5352C108.798 62.5073 112.351 61.5867 108.564 62.5922C106.431 61.8973 101.903 64.9978 101.721 64.9978C101.309 64.9978 98.287 53.3587 98.287 53.3587L89.3156 48.75H86.25L85.9416 50.2313L93.0197 56.8978L81.8259 61.7536L73.5136 50.2313L72.2855 50.7769L74.9128 59.2847L84.9534 64.7168L74.9128 76.5687L75.2416 84.964L67.9113 100.71L55.6845 99.1357L51.9345 78.3131L51.2093 70.478L34.4475 69.5784L32.2777 55.3355L39.8512 46.9385L52.6908 45.4573L62.0737 50.5601L70.7292 48.282C70.4686 43.9755 70.7409 45.3429 70.4686 43.9755L65.8594 43.8115L65.6126 41.4246L64.2134 40.9308L63.5548 43.8933L61.3329 43.77L58.5344 37.5558L56.5587 38.2144L58.9458 43.482L56.8059 44.2226L53.5964 39.3668L51.6211 39.0373L46.518 39.6959L42.2384 45.128L37.8759 45.4575L37.5466 37.4738L43.2255 37.062L43.7196 34.6751L42.3614 33.3584L42.3206 32.4935L46.1133 30.6326L48.8227 29.9426L53.4316 28.3376L54.9129 26.6091L55.736 28.3376L61.0034 28.9962L63.0612 26.8563L64.4604 21.0949L62.8964 20.4363L60.2625 24.3872L58.2867 22.0823L55.5712 25.5394L52.1962 26.1155L52.0322 23.7286L54.6656 18.1317L62.0733 14.9222L72.3609 14.1816L73.2666 17.3091C73.2666 17.3091 72.1144 20.4366 71.8673 20.5188C71.835 20.5294 71.9677 20.9299 72.2105 21.5887H79.5218L82.8141 18.8723L89.7244 16.7306C80.9771 10.7199 70.6134 7.50161 60 7.5ZM34.0073 16.2809L35.4473 16.5277C35.4473 16.5277 35.8589 18.4205 35.5298 18.873C35.2005 19.3259 32.9787 20.7253 32.9787 20.7253L31.5377 17.8859L34.0073 16.2809ZM43.6369 18.9968L45.5709 23.5648L46.353 27.4741C46.353 27.4741 43.6371 28.8319 43.4313 28.9966C43.2255 29.1607 41.9906 27.1036 41.9906 27.1036L41.5383 22.9059L42.1969 19.3669L43.6369 18.9968ZM40.7972 24.2641V28.0505L38.4518 28.9552L37.958 27.1448L40.7974 24.2644L40.7972 24.2641ZM85.1184 80.1902L83.3923 94.6741L79.6038 95.4162C79.6038 95.4162 80.7448 83.5821 81.3209 82.924L85.1182 80.19L85.1184 80.1902Z" fill="#FBA60A"/>
</svg>
