<svg width="120" height="120" viewBox="0 0 120 120" fill="none" xmlns="http://www.w3.org/2000/svg">
<path d="M101.35 81.3246L104.875 60.9246C105.082 59.7289 105.025 58.5025 104.708 57.3311C104.392 56.1597 103.823 55.0716 103.042 54.1429C102.261 53.2143 101.287 52.4675 100.187 51.9547C99.087 51.442 97.8885 51.1757 96.675 51.1746H70.77C70.1655 51.1747 69.5681 51.0432 69.0195 50.7892C68.4709 50.5353 67.9841 50.1649 67.593 49.7039C67.2019 49.2428 66.9159 48.7022 66.7548 48.1195C66.5937 47.5368 66.5613 46.926 66.66 46.3296L69.975 26.1046C70.513 22.8207 70.3597 19.4608 69.525 16.2396C69.1679 14.9086 68.48 13.6895 67.5255 12.6955C66.5709 11.7016 65.3805 10.9651 64.065 10.5546L63.34 10.3196C61.7009 9.793 59.9222 9.91468 58.37 10.6596C56.67 11.4796 55.43 12.9746 54.97 14.7496L52.59 23.9196C51.8323 26.8377 50.7313 29.6557 49.31 32.3146C47.235 36.1996 44.025 39.3146 40.685 42.1896L33.49 48.3896C32.4919 49.2521 31.7123 50.3389 31.2152 51.5608C30.718 52.7828 30.5175 54.1052 30.63 55.4196L34.69 102.385C34.869 104.462 35.8202 106.396 37.356 107.806C38.8917 109.216 40.9003 109.998 42.985 110H66.225C83.635 110 98.49 97.8696 101.35 81.3246Z" fill="#FBA60A"/>
<path fill-rule="evenodd" clip-rule="evenodd" d="M14.8399 47.4255C15.8062 47.3832 16.7515 47.716 17.4782 48.3542C18.205 48.9924 18.657 49.8868 18.7399 50.8505L23.5899 107.03C23.6721 107.867 23.5828 108.712 23.3276 109.513C23.0724 110.314 22.6566 111.054 22.1056 111.689C21.5546 112.324 20.88 112.84 20.1229 113.205C19.3659 113.57 18.5423 113.778 17.7024 113.814C16.8626 113.851 16.0241 113.715 15.2383 113.417C14.4524 113.118 13.7357 112.663 13.1318 112.078C12.5279 111.493 12.0496 110.791 11.726 110.016C11.4025 109.24 11.2405 108.406 11.2499 107.565V51.1705C11.2503 50.2039 11.6239 49.2748 12.2928 48.577C12.9617 47.8792 13.8742 47.4667 14.8399 47.4255Z" fill="#FBA60A"/>
</svg>
